STARTFONT 2.1
COMMENT
COMMENT Converted from OpenType font "CircularStd-Bold.otf" by "otf2bdf 3.0".
COMMENT
FONT -FreeType-Circular Std Bold-Medium-R-Normal--15-110-100-100-P-80-ISO10646-1
SIZE 11 100 100
FONTBOUNDINGBOX 25 18 -1 -4
STARTPROPERTIES 19
FOUNDRY "FreeType"
FAMILY_NAME "Circular Std Bold"
WEIGHT_NAME "Medium"
SLANT "R"
SETWIDTH_NAME "Normal"
ADD_STYLE_NAME ""
PIXEL_SIZE 15
POINT_SIZE 110
RESOLUTION_X 100
RESOLUTION_Y 100
SPACING "P"
AVERAGE_WIDTH 80
CHARSET_REGISTRY "ISO10646"
CHARSET_ENCODING "1"
FONT_ASCENT 14
FONT_DESCENT 4
COPYRIGHT "Generated in 2013 by FontLab Studio. Copyright info pending."
_OTF_FONTFILE "CircularStd-Bold.otf"
_OTF_PSNAME "CircularStd-Bold"
ENDPROPERTIES
CHARS 332
STARTCHAR 0000
ENCODING 0
SWIDTH 0 0
DWIDTH 0 0
BBX 0 0 0 0
BITMAP
ENDCHAR
STARTCHAR 000D
ENCODING 13
SWIDTH 261 0
DWIDTH 4 0
BBX 0 0 0 0
BITMAP
ENDCHAR
STARTCHAR 0020
ENCODING 32
SWIDTH 261 0
DWIDTH 4 0
BBX 0 0 0 0
BITMAP
ENDCHAR
STARTCHAR 0021
ENCODING 33
SWIDTH 327 0
DWIDTH 5 0
BBX 3 11 1 0
BITMAP
60
60
60
60
60
60
60
60
00
60
60
ENDCHAR
STARTCHAR 0022
ENCODING 34
SWIDTH 392 0
DWIDTH 6 0
BBX 5 4 1 6
BITMAP
D8
D8
90
90
ENDCHAR
STARTCHAR 0023
ENCODING 35
SWIDTH 720 0
DWIDTH 11 0
BBX 10 10 1 0
BITMAP
1980
1100
FFC0
3300
3300
2200
FF80
6600
6600
6600
ENDCHAR
STARTCHAR 0024
ENCODING 36
SWIDTH 589 0
DWIDTH 9 0
BBX 7 14 1 -2
BITMAP
10
10
7C
FE
C6
C0
7C
3E
06
C6
FE
7C
10
10
ENDCHAR
STARTCHAR 0025
ENCODING 37
SWIDTH 850 0
DWIDTH 13 0
BBX 11 10 1 0
BITMAP
70C0
D980
9B00
DA00
7600
0DC0
0B60
1B20
3360
21C0
ENDCHAR
STARTCHAR 0026
ENCODING 38
SWIDTH 720 0
DWIDTH 11 0
BBX 9 11 1 0
BITMAP
3800
7C00
6600
6C00
7C00
3880
7D80
CF00
C700
FF00
7980
ENDCHAR
STARTCHAR 0027
ENCODING 39
SWIDTH 196 0
DWIDTH 3 0
BBX 2 4 1 6
BITMAP
C0
C0
80
80
ENDCHAR
STARTCHAR 0028
ENCODING 40
SWIDTH 327 0
DWIDTH 5 0
BBX 4 16 1 -3
BITMAP
20
30
60
40
C0
C0
80
80
80
80
C0
C0
C0
60
30
20
ENDCHAR
STARTCHAR 0029
ENCODING 41
SWIDTH 327 0
DWIDTH 5 0
BBX 4 16 0 -3
BITMAP
40
C0
60
30
30
30
10
10
10
10
30
30
30
60
C0
40
ENDCHAR
STARTCHAR 002A
ENCODING 42
SWIDTH 458 0
DWIDTH 7 0
BBX 5 6 1 5
BITMAP
20
20
F8
70
F0
50
ENDCHAR
STARTCHAR 002B
ENCODING 43
SWIDTH 589 0
DWIDTH 9 0
BBX 7 7 1 1
BITMAP
00
18
18
7E
7E
18
18
ENDCHAR
STARTCHAR 002C
ENCODING 44
SWIDTH 327 0
DWIDTH 5 0
BBX 3 6 1 -3
BITMAP
C0
E0
E0
60
40
80
ENDCHAR
STARTCHAR 002D
ENCODING 45
SWIDTH 392 0
DWIDTH 6 0
BBX 4 2 1 4
BITMAP
F0
F0
ENDCHAR
STARTCHAR 002E
ENCODING 46
SWIDTH 327 0
DWIDTH 5 0
BBX 3 3 1 0
BITMAP
C0
E0
C0
ENDCHAR
STARTCHAR 002F
ENCODING 47
SWIDTH 458 0
DWIDTH 7 0
BBX 7 11 0 0
BITMAP
06
06
0C
0C
18
18
30
30
60
60
C0
ENDCHAR
STARTCHAR 0030
ENCODING 48
SWIDTH 654 0
DWIDTH 10 0
BBX 8 10 1 0
BITMAP
3C
7E
C6
C3
C3
C3
C3
C6
7E
3C
ENDCHAR
STARTCHAR 0031
ENCODING 49
SWIDTH 392 0
DWIDTH 6 0
BBX 5 10 0 0
BITMAP
18
38
78
D8
18
18
18
18
18
18
ENDCHAR
STARTCHAR 0032
ENCODING 50
SWIDTH 523 0
DWIDTH 8 0
BBX 7 10 1 0
BITMAP
78
FC
CE
C6
0C
3C
70
E0
FE
FE
ENDCHAR
STARTCHAR 0033
ENCODING 51
SWIDTH 523 0
DWIDTH 8 0
BBX 8 10 0 0
BITMAP
7F
7F
0E
1C
1E
1F
03
E3
7E
3C
ENDCHAR
STARTCHAR 0034
ENCODING 52
SWIDTH 589 0
DWIDTH 9 0
BBX 9 10 0 0
BITMAP
0E00
0E00
1E00
3600
6600
6600
FF80
FF80
0600
0600
ENDCHAR
STARTCHAR 0035
ENCODING 53
SWIDTH 523 0
DWIDTH 8 0
BBX 7 10 1 0
BITMAP
7C
7C
C0
D8
FC
4E
06
C6
FC
78
ENDCHAR
STARTCHAR 0036
ENCODING 54
SWIDTH 589 0
DWIDTH 9 0
BBX 7 10 1 0
BITMAP
1E
7E
E0
D8
FE
C6
C6
C6
7E
3C
ENDCHAR
STARTCHAR 0037
ENCODING 55
SWIDTH 523 0
DWIDTH 8 0
BBX 8 10 0 0
BITMAP
FF
FF
06
0C
18
18
30
30
30
70
ENDCHAR
STARTCHAR 0038
ENCODING 56
SWIDTH 589 0
DWIDTH 9 0
BBX 7 10 1 0
BITMAP
78
FE
C6
C6
7C
FC
C6
C6
FE
7C
ENDCHAR
STARTCHAR 0039
ENCODING 57
SWIDTH 589 0
DWIDTH 9 0
BBX 7 10 1 0
BITMAP
78
FC
C6
C6
C6
FE
36
0E
FC
F8
ENDCHAR
STARTCHAR 003A
ENCODING 58
SWIDTH 327 0
DWIDTH 5 0
BBX 3 8 1 0
BITMAP
C0
E0
C0
00
00
C0
E0
C0
ENDCHAR
STARTCHAR 003B
ENCODING 59
SWIDTH 327 0
DWIDTH 5 0
BBX 3 10 1 -2
BITMAP
C0
E0
C0
00
00
00
E0
E0
20
C0
ENDCHAR
STARTCHAR 003C
ENCODING 60
SWIDTH 523 0
DWIDTH 8 0
BBX 6 9 1 0
BITMAP
04
1C
38
E0
C0
E0
38
1C
04
ENDCHAR
STARTCHAR 003D
ENCODING 61
SWIDTH 589 0
DWIDTH 9 0
BBX 7 5 1 2
BITMAP
FE
FE
00
FE
FE
ENDCHAR
STARTCHAR 003E
ENCODING 62
SWIDTH 523 0
DWIDTH 8 0
BBX 7 9 0 0
BITMAP
80
E0
78
1E
06
1E
78
E0
80
ENDCHAR
STARTCHAR 003F
ENCODING 63
SWIDTH 523 0
DWIDTH 8 0
BBX 8 11 0 0
BITMAP
3C
7E
67
C7
06
1C
18
18
00
18
18
ENDCHAR
STARTCHAR 0040
ENCODING 64
SWIDTH 850 0
DWIDTH 13 0
BBX 11 12 1 -1
BITMAP
1F00
39C0
6040
CF60
9B20
9120
B360
9B40
DD80
6000
7180
1F00
ENDCHAR
STARTCHAR 0041
ENCODING 65
SWIDTH 720 0
DWIDTH 11 0
BBX 11 11 0 0
BITMAP
0E00
0E00
1F00
1B00
1B00
3380
3180
7FC0
7FC0
60C0
E0E0
ENDCHAR
STARTCHAR 0042
ENCODING 66
SWIDTH 589 0
DWIDTH 9 0
BBX 8 11 1 0
BITMAP
FC
FE
C6
C6
FE
FE
C7
C3
C7
FE
FC
ENDCHAR
STARTCHAR 0043
ENCODING 67
SWIDTH 785 0
DWIDTH 12 0
BBX 10 11 1 0
BITMAP
1F00
7F80
E1C0
C0C0
C000
C000
C000
C0C0
E1C0
7F80
1F00
ENDCHAR
STARTCHAR 0044
ENCODING 68
SWIDTH 720 0
DWIDTH 11 0
BBX 9 11 1 0
BITMAP
FE00
FF00
C380
C180
C180
C180
C180
C180
C380
FF00
FE00
ENDCHAR
STARTCHAR 0045
ENCODING 69
SWIDTH 589 0
DWIDTH 9 0
BBX 7 11 1 0
BITMAP
FE
FE
C0
C0
FE
FE
C0
C0
C0
FE
FE
ENDCHAR
STARTCHAR 0046
ENCODING 70
SWIDTH 589 0
DWIDTH 9 0
BBX 7 11 1 0
BITMAP
FE
FE
C0
C0
C0
FE
FE
C0
C0
C0
C0
ENDCHAR
STARTCHAR 0047
ENCODING 71
SWIDTH 785 0
DWIDTH 12 0
BBX 10 11 1 0
BITMAP
1F00
7F80
E1C0
C080
C000
C7C0
C7C0
C0C0
E1C0
7FC0
1EC0
ENDCHAR
STARTCHAR 0048
ENCODING 72
SWIDTH 720 0
DWIDTH 11 0
BBX 9 11 1 0
BITMAP
C180
C180
C180
C180
FF80
FF80
C180
C180
C180
C180
C180
ENDCHAR
STARTCHAR 0049
ENCODING 73
SWIDTH 327 0
DWIDTH 5 0
BBX 2 11 1 0
BITMAP
C0
C0
C0
C0
C0
C0
C0
C0
C0
C0
C0
ENDCHAR
STARTCHAR 004A
ENCODING 74
SWIDTH 589 0
DWIDTH 9 0
BBX 7 11 0 0
BITMAP
06
06
06
06
06
06
06
C6
E6
7E
3C
ENDCHAR
STARTCHAR 004B
ENCODING 75
SWIDTH 720 0
DWIDTH 11 0
BBX 9 11 1 0
BITMAP
C380
C700
C600
CC00
D800
FC00
FC00
EE00
C700
C300
C380
ENDCHAR
STARTCHAR 004C
ENCODING 76
SWIDTH 589 0
DWIDTH 9 0
BBX 7 11 1 0
BITMAP
C0
C0
C0
C0
C0
C0
C0
C0
C0
FE
FE
ENDCHAR
STARTCHAR 004D
ENCODING 77
SWIDTH 981 0
DWIDTH 15 0
BBX 12 11 1 0
BITMAP
E070
F070
F0F0
F0F0
D8F0
D9B0
CDB0
CFB0
CF30
C730
C630
ENDCHAR
STARTCHAR 004E
ENCODING 78
SWIDTH 785 0
DWIDTH 12 0
BBX 9 11 1 0
BITMAP
E180
F180
F180
D980
DD80
CD80
CF80
C780
C380
C380
C180
ENDCHAR
STARTCHAR 004F
ENCODING 79
SWIDTH 785 0
DWIDTH 12 0
BBX 11 11 1 0
BITMAP
1F00
7F80
E1C0
C0C0
C0E0
C060
C0E0
C0C0
E1C0
7F80
1F00
ENDCHAR
STARTCHAR 0050
ENCODING 80
SWIDTH 589 0
DWIDTH 9 0
BBX 8 11 1 0
BITMAP
FC
FE
C7
C3
C7
FE
FC
C0
C0
C0
C0
ENDCHAR
STARTCHAR 0051
ENCODING 81
SWIDTH 785 0
DWIDTH 12 0
BBX 11 12 1 -1
BITMAP
1F00
7F80
E1C0
C0C0
C0E0
C060
C6E0
C7C0
E3C0
7FC0
1FE0
0040
ENDCHAR
STARTCHAR 0052
ENCODING 82
SWIDTH 654 0
DWIDTH 10 0
BBX 8 11 1 0
BITMAP
FC
FE
C3
C3
C7
FE
FC
CC
CE
C6
C7
ENDCHAR
STARTCHAR 0053
ENCODING 83
SWIDTH 589 0
DWIDTH 9 0
BBX 8 11 1 0
BITMAP
3C
FE
C6
C0
F0
7E
0E
87
C7
FE
7C
ENDCHAR
STARTCHAR 0054
ENCODING 84
SWIDTH 589 0
DWIDTH 9 0
BBX 9 11 0 0
BITMAP
FF80
FF80
0C00
0C00
0C00
0C00
0C00
0C00
0C00
0C00
0C00
ENDCHAR
STARTCHAR 0055
ENCODING 85
SWIDTH 720 0
DWIDTH 11 0
BBX 8 11 1 0
BITMAP
C3
C3
C3
C3
C3
C3
C3
C3
E3
7F
3C
ENDCHAR
STARTCHAR 0056
ENCODING 86
SWIDTH 720 0
DWIDTH 11 0
BBX 10 11 0 0
BITMAP
E0C0
60C0
6180
7180
3180
3300
1B00
1B00
1E00
0E00
0C00
ENDCHAR
STARTCHAR 0057
ENCODING 87
SWIDTH 1047 0
DWIDTH 16 0
BBX 15 11 0 0
BITMAP
E186
6386
63C6
63CE
76CC
366C
366C
3C78
1C38
1C38
1C38
ENDCHAR
STARTCHAR 0058
ENCODING 88
SWIDTH 654 0
DWIDTH 10 0
BBX 9 11 1 0
BITMAP
C380
E300
6600
3E00
3C00
1800
3C00
3E00
6600
E700
C380
ENDCHAR
STARTCHAR 0059
ENCODING 89
SWIDTH 654 0
DWIDTH 10 0
BBX 10 11 0 0
BITMAP
E1C0
6180
3300
3F00
1E00
1E00
0C00
0C00
0C00
0C00
0C00
ENDCHAR
STARTCHAR 005A
ENCODING 90
SWIDTH 654 0
DWIDTH 10 0
BBX 8 11 1 0
BITMAP
FF
FF
07
0E
1C
38
30
70
E0
FF
FF
ENDCHAR
STARTCHAR 005B
ENCODING 91
SWIDTH 327 0
DWIDTH 5 0
BBX 4 16 1 -3
BITMAP
F0
F0
C0
C0
C0
C0
C0
C0
C0
C0
C0
C0
C0
C0
F0
F0
ENDCHAR
STARTCHAR 005C
ENCODING 92
SWIDTH 458 0
DWIDTH 7 0
BBX 7 11 0 0
BITMAP
C0
60
60
30
30
18
18
0C
0C
06
06
ENDCHAR
STARTCHAR 005D
ENCODING 93
SWIDTH 327 0
DWIDTH 5 0
BBX 4 16 0 -3
BITMAP
F0
F0
30
30
30
30
30
30
30
30
30
30
30
30
F0
F0
ENDCHAR
STARTCHAR 005E
ENCODING 94
SWIDTH 523 0
DWIDTH 8 0
BBX 8 6 0 5
BITMAP
18
1C
3C
66
66
C3
ENDCHAR
STARTCHAR 005F
ENCODING 95
SWIDTH 523 0
DWIDTH 8 0
BBX 8 2 0 -2
BITMAP
FF
FF
ENDCHAR
STARTCHAR 0060
ENCODING 96
SWIDTH 327 0
DWIDTH 5 0
BBX 3 3 1 8
BITMAP
C0
C0
60
ENDCHAR
STARTCHAR 0061
ENCODING 97
SWIDTH 523 0
DWIDTH 8 0
BBX 6 8 1 0
BITMAP
78
FC
CC
3C
FC
CC
CC
7C
ENDCHAR
STARTCHAR 0062
ENCODING 98
SWIDTH 589 0
DWIDTH 9 0
BBX 8 11 1 0
BITMAP
C0
C0
C0
DC
FE
E7
C3
C3
C7
FE
DC
ENDCHAR
STARTCHAR 0063
ENCODING 99
SWIDTH 523 0
DWIDTH 8 0
BBX 7 8 1 0
BITMAP
78
FC
C6
C0
C0
C6
FC
78
ENDCHAR
STARTCHAR 0064
ENCODING 100
SWIDTH 589 0
DWIDTH 9 0
BBX 7 11 1 0
BITMAP
06
06
06
7E
FE
C6
C6
C6
C6
FE
7E
ENDCHAR
STARTCHAR 0065
ENCODING 101
SWIDTH 523 0
DWIDTH 8 0
BBX 7 8 1 0
BITMAP
78
FC
C6
FE
C0
C6
FC
78
ENDCHAR
STARTCHAR 0066
ENCODING 102
SWIDTH 327 0
DWIDTH 5 0
BBX 5 12 0 0
BITMAP
18
38
60
60
F8
F8
60
60
60
60
60
70
ENDCHAR
STARTCHAR 0067
ENCODING 103
SWIDTH 589 0
DWIDTH 9 0
BBX 7 11 1 -3
BITMAP
7E
FE
C6
C6
C6
C6
FE
36
C6
FC
78
ENDCHAR
STARTCHAR 0068
ENCODING 104
SWIDTH 589 0
DWIDTH 9 0
BBX 7 11 1 0
BITMAP
C0
C0
C0
FC
FE
C6
C6
C6
C6
C6
C6
ENDCHAR
STARTCHAR 0069
ENCODING 105
SWIDTH 261 0
DWIDTH 4 0
BBX 2 12 1 0
BITMAP
C0
C0
C0
00
C0
C0
C0
C0
C0
C0
C0
C0
ENDCHAR
STARTCHAR 006A
ENCODING 106
SWIDTH 261 0
DWIDTH 4 0
BBX 3 15 0 -3
BITMAP
60
60
60
00
60
60
60
60
60
60
60
60
60
E0
C0
ENDCHAR
STARTCHAR 006B
ENCODING 107
SWIDTH 589 0
DWIDTH 9 0
BBX 7 11 1 0
BITMAP
C0
C0
C0
CE
DC
D8
F0
F8
DC
CC
C6
ENDCHAR
STARTCHAR 006C
ENCODING 108
SWIDTH 261 0
DWIDTH 4 0
BBX 2 11 1 0
BITMAP
C0
C0
C0
C0
C0
C0
C0
C0
C0
C0
C0
ENDCHAR
STARTCHAR 006D
ENCODING 109
SWIDTH 916 0
DWIDTH 14 0
BBX 12 8 1 0
BITMAP
DDE0
FFE0
C670
C630
C630
C630
C630
C630
ENDCHAR
STARTCHAR 006E
ENCODING 110
SWIDTH 589 0
DWIDTH 9 0
BBX 7 8 1 0
BITMAP
DC
FE
C6
C6
C6
C6
C6
C6
ENDCHAR
STARTCHAR 006F
ENCODING 111
SWIDTH 589 0
DWIDTH 9 0
BBX 7 8 1 0
BITMAP
78
FE
C6
C6
C6
C6
FE
78
ENDCHAR
STARTCHAR 0070
ENCODING 112
SWIDTH 589 0
DWIDTH 9 0
BBX 8 11 1 -3
BITMAP
DC
FE
E7
C3
C3
E7
FE
DC
C0
C0
C0
ENDCHAR
STARTCHAR 0071
ENCODING 113
SWIDTH 589 0
DWIDTH 9 0
BBX 7 11 1 -3
BITMAP
7E
FE
C6
C6
C6
C6
FE
7E
06
06
06
ENDCHAR
STARTCHAR 0072
ENCODING 114
SWIDTH 392 0
DWIDTH 6 0
BBX 5 8 1 0
BITMAP
D8
F8
E0
C0
C0
C0
C0
C0
ENDCHAR
STARTCHAR 0073
ENCODING 115
SWIDTH 458 0
DWIDTH 7 0
BBX 5 8 1 0
BITMAP
70
F8
C0
F0
78
88
F8
70
ENDCHAR
STARTCHAR 0074
ENCODING 116
SWIDTH 392 0
DWIDTH 6 0
BBX 5 10 0 0
BITMAP
30
30
7C
7C
30
30
30
30
38
38
ENDCHAR
STARTCHAR 0075
ENCODING 117
SWIDTH 589 0
DWIDTH 9 0
BBX 7 8 1 0
BITMAP
C6
C6
C6
C6
C6
C6
FE
76
ENDCHAR
STARTCHAR 0076
ENCODING 118
SWIDTH 523 0
DWIDTH 8 0
BBX 8 8 0 0
BITMAP
E3
63
66
76
36
3C
1C
18
ENDCHAR
STARTCHAR 0077
ENCODING 119
SWIDTH 850 0
DWIDTH 13 0
BBX 12 8 0 0
BITMAP
C730
6730
6730
6DA0
3DE0
39E0
38E0
38C0
ENDCHAR
STARTCHAR 0078
ENCODING 120
SWIDTH 523 0
DWIDTH 8 0
BBX 7 8 1 0
BITMAP
C6
EE
7C
38
38
7C
EE
C6
ENDCHAR
STARTCHAR 0079
ENCODING 121
SWIDTH 589 0
DWIDTH 9 0
BBX 8 11 0 -3
BITMAP
E3
63
66
36
3C
1C
1C
18
18
30
30
ENDCHAR
STARTCHAR 007A
ENCODING 122
SWIDTH 458 0
DWIDTH 7 0
BBX 6 8 1 0
BITMAP
FC
FC
18
30
60
E0
FC
FC
ENDCHAR
STARTCHAR 007B
ENCODING 123
SWIDTH 392 0
DWIDTH 6 0
BBX 5 16 1 -3
BITMAP
08
38
60
60
60
60
60
C0
C0
60
60
60
60
60
38
08
ENDCHAR
STARTCHAR 007C
ENCODING 124
SWIDTH 261 0
DWIDTH 4 0
BBX 2 14 1 -2
BITMAP
C0
C0
C0
C0
C0
C0
C0
C0
C0
C0
C0
C0
C0
C0
ENDCHAR
STARTCHAR 007D
ENCODING 125
SWIDTH 392 0
DWIDTH 6 0
BBX 5 16 0 -3
BITMAP
80
E0
20
20
20
20
30
38
18
30
20
20
20
20
E0
80
ENDCHAR
STARTCHAR 007E
ENCODING 126
SWIDTH 589 0
DWIDTH 9 0
BBX 8 3 0 3
BITMAP
70
FF
4F
ENDCHAR
STARTCHAR 00A0
ENCODING 160
SWIDTH 261 0
DWIDTH 4 0
BBX 0 0 0 0
BITMAP
ENDCHAR
STARTCHAR 00A1
ENCODING 161
SWIDTH 327 0
DWIDTH 5 0
BBX 2 11 1 -3
BITMAP
C0
C0
00
40
C0
C0
C0
C0
C0
C0
C0
ENDCHAR
STARTCHAR 00A2
ENCODING 162
SWIDTH 523 0
DWIDTH 8 0
BBX 7 10 1 0
BITMAP
10
38
7C
C6
C0
C0
C6
7C
38
10
ENDCHAR
STARTCHAR 00A3
ENCODING 163
SWIDTH 589 0
DWIDTH 9 0
BBX 8 10 1 0
BITMAP
3C
7E
66
60
FC
FC
20
63
FE
FE
ENDCHAR
STARTCHAR 00A4
ENCODING 164
SWIDTH 589 0
DWIDTH 9 0
BBX 7 8 1 0
BITMAP
82
FE
7C
C6
C6
7C
FE
82
ENDCHAR
STARTCHAR 00A5
ENCODING 165
SWIDTH 589 0
DWIDTH 9 0
BBX 8 10 1 0
BITMAP
C3
C6
6E
7C
FE
18
18
FE
18
18
ENDCHAR
STARTCHAR 00A6
ENCODING 166
SWIDTH 261 0
DWIDTH 4 0
BBX 2 14 1 -2
BITMAP
C0
C0
C0
C0
C0
C0
00
00
C0
C0
C0
C0
C0
C0
ENDCHAR
STARTCHAR 00A7
ENCODING 167
SWIDTH 589 0
DWIDTH 9 0
BBX 7 14 1 -3
BITMAP
78
FC
C6
C0
70
7C
CC
E4
7C
3C
0C
CC
FC
78
ENDCHAR
STARTCHAR 00A8
ENCODING 168
SWIDTH 392 0
DWIDTH 6 0
BBX 6 2 0 9
BITMAP
4C
CC
ENDCHAR
STARTCHAR 00A9
ENCODING 169
SWIDTH 785 0
DWIDTH 12 0
BBX 11 11 1 0
BITMAP
1F00
7180
40C0
9E40
B360
B020
B360
9E40
40C0
7180
1F00
ENDCHAR
STARTCHAR 00AA
ENCODING 170
SWIDTH 392 0
DWIDTH 6 0
BBX 5 6 1 4
BITMAP
70
D0
38
D8
98
F8
ENDCHAR
STARTCHAR 00AB
ENCODING 171
SWIDTH 523 0
DWIDTH 8 0
BBX 6 6 1 2
BITMAP
6C
CC
D8
D8
CC
6C
ENDCHAR
STARTCHAR 00AC
ENCODING 172
SWIDTH 589 0
DWIDTH 9 0
BBX 7 5 1 2
BITMAP
FE
FE
06
06
06
ENDCHAR
STARTCHAR 00AD
ENCODING 173
SWIDTH 392 0
DWIDTH 6 0
BBX 4 2 1 4
BITMAP
F0
F0
ENDCHAR
STARTCHAR 00AE
ENCODING 174
SWIDTH 785 0
DWIDTH 12 0
BBX 11 11 1 0
BITMAP
1E00
3180
40C0
9E40
9B60
9E20
9E60
9A60
C0C0
7180
1F00
ENDCHAR
STARTCHAR 00AF
ENCODING 175
SWIDTH 327 0
DWIDTH 5 0
BBX 5 1 0 9
BITMAP
F8
ENDCHAR
STARTCHAR 00B0
ENCODING 176
SWIDTH 392 0
DWIDTH 6 0
BBX 5 5 0 5
BITMAP
70
78
C8
58
70
ENDCHAR
STARTCHAR 00B1
ENCODING 177
SWIDTH 589 0
DWIDTH 9 0
BBX 7 7 1 1
BITMAP
10
FE
FE
10
10
FE
FE
ENDCHAR
STARTCHAR 00B2
ENCODING 178
SWIDTH 392 0
DWIDTH 6 0
BBX 4 6 1 5
BITMAP
F0
B0
30
60
C0
F0
ENDCHAR
STARTCHAR 00B3
ENCODING 179
SWIDTH 392 0
DWIDTH 6 0
BBX 4 6 1 5
BITMAP
F0
30
70
10
90
70
ENDCHAR
STARTCHAR 00B4
ENCODING 180
SWIDTH 327 0
DWIDTH 5 0
BBX 3 3 1 8
BITMAP
60
C0
80
ENDCHAR
STARTCHAR 00B5
ENCODING 181
SWIDTH 589 0
DWIDTH 9 0
BBX 7 11 1 -3
BITMAP
C6
C6
C6
C6
C6
C6
FE
FE
C0
C0
C0
ENDCHAR
STARTCHAR 00B6
ENCODING 182
SWIDTH 654 0
DWIDTH 10 0
BBX 10 14 0 -3
BITMAP
3FC0
7FC0
F900
F900
7900
7900
0900
0900
0900
0900
0900
0900
0900
0900
ENDCHAR
STARTCHAR 00B7
ENCODING 183
SWIDTH 261 0
DWIDTH 4 0
BBX 3 3 1 3
BITMAP
C0
E0
C0
ENDCHAR
STARTCHAR 00B8
ENCODING 184
SWIDTH 327 0
DWIDTH 5 0
BBX 4 3 0 -3
BITMAP
20
30
F0
ENDCHAR
STARTCHAR 00B9
ENCODING 185
SWIDTH 327 0
DWIDTH 5 0
BBX 3 6 1 5
BITMAP
60
E0
60
60
60
60
ENDCHAR
STARTCHAR 00BA
ENCODING 186
SWIDTH 458 0
DWIDTH 7 0
BBX 5 5 1 5
BITMAP
70
D8
88
C8
78
ENDCHAR
STARTCHAR 00BB
ENCODING 187
SWIDTH 523 0
DWIDTH 8 0
BBX 6 6 1 2
BITMAP
D8
CC
6C
6C
CC
D8
ENDCHAR
STARTCHAR 00BC
ENCODING 188
SWIDTH 785 0
DWIDTH 12 0
BBX 11 10 1 0
BITMAP
6180
E300
6200
6600
6CC0
69C0
1BC0
32C0
23E0
60C0
ENDCHAR
STARTCHAR 00BD
ENCODING 189
SWIDTH 850 0
DWIDTH 13 0
BBX 11 10 1 0
BITMAP
6180
E300
6200
6600
6DC0
6960
1860
30C0
2180
63E0
ENDCHAR
STARTCHAR 00BE
ENCODING 190
SWIDTH 916 0
DWIDTH 14 0
BBX 12 10 1 0
BITMAP
F0C0
3080
7180
1300
9260
F6E0
0DE0
1960
19F0
3060
ENDCHAR
STARTCHAR 00BF
ENCODING 191
SWIDTH 523 0
DWIDTH 8 0
BBX 7 12 0 -4
BITMAP
18
18
10
00
18
38
70
E0
C6
E6
7E
38
ENDCHAR
STARTCHAR 00C0
ENCODING 192
SWIDTH 720 0
DWIDTH 11 0
BBX 11 14 0 0
BITMAP
1800
0C00
0000
0E00
0E00
1F00
1B00
1B00
3380
3180
7FC0
7FC0
60C0
E0E0
ENDCHAR
STARTCHAR 00C1
ENCODING 193
SWIDTH 720 0
DWIDTH 11 0
BBX 11 14 0 0
BITMAP
0300
0600
0000
0E00
0E00
1F00
1B00
1B00
3380
3180
7FC0
7FC0
60C0
E0E0
ENDCHAR
STARTCHAR 00C2
ENCODING 194
SWIDTH 720 0
DWIDTH 11 0
BBX 11 14 0 0
BITMAP
0E00
1B00
0000
0E00
0E00
1F00
1B00
1B00
3380
3180
7FC0
7FC0
60C0
E0E0
ENDCHAR
STARTCHAR 00C3
ENCODING 195
SWIDTH 720 0
DWIDTH 11 0
BBX 11 14 0 0
BITMAP
1D00
1700
0000
0E00
0E00
1F00
1B00
1B00
3380
3180
7FC0
7FC0
60C0
E0E0
ENDCHAR
STARTCHAR 00C4
ENCODING 196
SWIDTH 720 0
DWIDTH 11 0
BBX 11 14 0 0
BITMAP
3180
3180
0000
0E00
0E00
1F00
1B00
1B00
3380
3180
7FC0
7FC0
60C0
E0E0
ENDCHAR
STARTCHAR 00C5
ENCODING 197
SWIDTH 720 0
DWIDTH 11 0
BBX 11 14 0 0
BITMAP
0E00
1A00
1B00
0E00
0E00
1F00
1B00
1B00
3380
3180
7FC0
7FC0
60C0
E0E0
ENDCHAR
STARTCHAR 00C6
ENCODING 198
SWIDTH 1047 0
DWIDTH 16 0
BBX 15 11 0 0
BITMAP
01FE
03FE
0360
0660
0E7E
0C7E
1C60
3FE0
3060
707E
E07E
ENDCHAR
STARTCHAR 00C7
ENCODING 199
SWIDTH 785 0
DWIDTH 12 0
BBX 10 14 1 -3
BITMAP
1F00
7F80
E1C0
C0C0
C000
C000
C000
C0C0
E1C0
7F80
1E00
0C00
0200
1E00
ENDCHAR
STARTCHAR 00C8
ENCODING 200
SWIDTH 589 0
DWIDTH 9 0
BBX 7 14 1 0
BITMAP
70
18
00
FE
FE
C0
C0
FE
FE
C0
C0
C0
FE
FE
ENDCHAR
STARTCHAR 00C9
ENCODING 201
SWIDTH 589 0
DWIDTH 9 0
BBX 7 14 1 0
BITMAP
0C
18
00
FE
FE
C0
C0
FE
FE
C0
C0
C0
FE
FE
ENDCHAR
STARTCHAR 00CA
ENCODING 202
SWIDTH 589 0
DWIDTH 9 0
BBX 7 14 1 0
BITMAP
38
6C
00
FE
FE
C0
C0
FE
FE
C0
C0
C0
FE
FE
ENDCHAR
STARTCHAR 00CB
ENCODING 203
SWIDTH 589 0
DWIDTH 9 0
BBX 7 14 1 0
BITMAP
6C
6C
00
FE
FE
C0
C0
FE
FE
C0
C0
C0
FE
FE
ENDCHAR
STARTCHAR 00CC
ENCODING 204
SWIDTH 327 0
DWIDTH 5 0
BBX 3 14 0 0
BITMAP
C0
60
00
60
60
60
60
60
60
60
60
60
60
60
ENDCHAR
STARTCHAR 00CD
ENCODING 205
SWIDTH 327 0
DWIDTH 5 0
BBX 4 14 1 0
BITMAP
70
60
00
C0
C0
C0
C0
C0
C0
C0
C0
C0
C0
C0
ENDCHAR
STARTCHAR 00CE
ENCODING 206
SWIDTH 327 0
DWIDTH 5 0
BBX 5 14 0 0
BITMAP
70
D8
00
60
60
60
60
60
60
60
60
60
60
60
ENDCHAR
STARTCHAR 00CF
ENCODING 207
SWIDTH 327 0
DWIDTH 5 0
BBX 5 14 0 0
BITMAP
D8
D8
00
60
60
60
60
60
60
60
60
60
60
60
ENDCHAR
STARTCHAR 00D0
ENCODING 208
SWIDTH 720 0
DWIDTH 11 0
BBX 11 11 0 0
BITMAP
3F00
3F80
31C0
30E0
FC60
FC60
3060
30E0
31C0
3F80
3F00
ENDCHAR
STARTCHAR 00D1
ENCODING 209
SWIDTH 785 0
DWIDTH 12 0
BBX 9 14 1 0
BITMAP
1A00
3E00
0000
E180
F180
F180
D980
DD80
CD80
CF80
C780
C380
C380
C180
ENDCHAR
STARTCHAR 00D2
ENCODING 210
SWIDTH 785 0
DWIDTH 12 0
BBX 11 14 1 0
BITMAP
1800
0C00
0000
1F00
7F80
E1C0
C0C0
C0E0
C060
C0E0
C0C0
E1C0
7F80
1F00
ENDCHAR
STARTCHAR 00D3
ENCODING 211
SWIDTH 785 0
DWIDTH 12 0
BBX 11 14 1 0
BITMAP
0700
0E00
0000
1F00
7F80
E1C0
C0C0
C0E0
C060
C0E0
C0C0
E1C0
7F80
1F00
ENDCHAR
STARTCHAR 00D4
ENCODING 212
SWIDTH 785 0
DWIDTH 12 0
BBX 11 14 1 0
BITMAP
0E00
1B00
0000
1F00
7F80
E1C0
C0C0
C0E0
C060
C0E0
C0C0
E1C0
7F80
1F00
ENDCHAR
STARTCHAR 00D5
ENCODING 213
SWIDTH 785 0
DWIDTH 12 0
BBX 11 14 1 0
BITMAP
1800
1F00
0600
1F00
7F80
E1C0
C0C0
C0E0
C060
C0E0
C0C0
E1C0
7F80
1F00
ENDCHAR
STARTCHAR 00D6
ENCODING 214
SWIDTH 785 0
DWIDTH 12 0
BBX 11 14 1 0
BITMAP
3180
3180
0000
1F00
7F80
E1C0
C0C0
C0E0
C060
C0E0
C0C0
E1C0
7F80
1F00
ENDCHAR
STARTCHAR 00D7
ENCODING 215
SWIDTH 589 0
DWIDTH 9 0
BBX 7 7 1 1
BITMAP
84
CE
7C
30
7C
CE
84
ENDCHAR
STARTCHAR 00D8
ENCODING 216
SWIDTH 785 0
DWIDTH 12 0
BBX 11 13 1 -1
BITMAP
0080
1FC0
7F80
E3C0
C3C0
C6E0
CC60
D8E0
F8C0
F1C0
7F80
DF00
4000
ENDCHAR
STARTCHAR 00D9
ENCODING 217
SWIDTH 720 0
DWIDTH 11 0
BBX 8 14 1 0
BITMAP
30
18
00
C3
C3
C3
C3
C3
C3
C3
C3
E3
7F
3C
ENDCHAR
STARTCHAR 00DA
ENCODING 218
SWIDTH 720 0
DWIDTH 11 0
BBX 8 14 1 0
BITMAP
0E
18
00
C3
C3
C3
C3
C3
C3
C3
C3
E3
7F
3C
ENDCHAR
STARTCHAR 00DB
ENCODING 219
SWIDTH 720 0
DWIDTH 11 0
BBX 8 14 1 0
BITMAP
1C
36
00
C3
C3
C3
C3
C3
C3
C3
C3
E3
7F
3C
ENDCHAR
STARTCHAR 00DC
ENCODING 220
SWIDTH 720 0
DWIDTH 11 0
BBX 8 14 1 0
BITMAP
26
66
00
C3
C3
C3
C3
C3
C3
C3
C3
E3
7F
3C
ENDCHAR
STARTCHAR 00DD
ENCODING 221
SWIDTH 654 0
DWIDTH 10 0
BBX 10 14 0 0
BITMAP
0600
0C00
0000
E1C0
6180
3300
3B00
1E00
1E00
0C00
0C00
0C00
0C00
0C00
ENDCHAR
STARTCHAR 00DE
ENCODING 222
SWIDTH 589 0
DWIDTH 9 0
BBX 8 11 1 0
BITMAP
C0
C0
FC
FE
C7
C3
C7
FE
FC
C0
C0
ENDCHAR
STARTCHAR 00DF
ENCODING 223
SWIDTH 589 0
DWIDTH 9 0
BBX 8 11 1 0
BITMAP
3C
7E
C6
C6
CE
D8
DC
CF
C3
DF
DE
ENDCHAR
STARTCHAR 00E0
ENCODING 224
SWIDTH 523 0
DWIDTH 8 0
BBX 6 11 1 0
BITMAP
60
30
00
78
FC
CC
3C
FC
CC
CC
7C
ENDCHAR
STARTCHAR 00E1
ENCODING 225
SWIDTH 523 0
DWIDTH 8 0
BBX 6 11 1 0
BITMAP
18
30
00
78
FC
CC
3C
FC
CC
CC
7C
ENDCHAR
STARTCHAR 00E2
ENCODING 226
SWIDTH 523 0
DWIDTH 8 0
BBX 6 11 1 0
BITMAP
30
48
00
78
FC
CC
3C
FC
CC
CC
7C
ENDCHAR
STARTCHAR 00E3
ENCODING 227
SWIDTH 523 0
DWIDTH 8 0
BBX 6 11 1 0
BITMAP
60
7C
18
78
FC
CC
3C
FC
CC
CC
7C
ENDCHAR
STARTCHAR 00E4
ENCODING 228
SWIDTH 523 0
DWIDTH 8 0
BBX 6 11 1 0
BITMAP
4C
CC
00
78
FC
CC
3C
FC
CC
CC
7C
ENDCHAR
STARTCHAR 00E5
ENCODING 229
SWIDTH 523 0
DWIDTH 8 0
BBX 6 12 1 0
BITMAP
30
48
30
00
78
FC
CC
3C
FC
CC
CC
7C
ENDCHAR
STARTCHAR 00E6
ENCODING 230
SWIDTH 850 0
DWIDTH 13 0
BBX 12 8 1 0
BITMAP
7BC0
FFE0
CC30
7FF0
EC00
CE20
FFE0
73C0
ENDCHAR
STARTCHAR 00E7
ENCODING 231
SWIDTH 523 0
DWIDTH 8 0
BBX 7 11 1 -3
BITMAP
78
FC
C6
C0
C0
C6
FC
38
38
08
38
ENDCHAR
STARTCHAR 00E8
ENCODING 232
SWIDTH 523 0
DWIDTH 8 0
BBX 7 11 1 0
BITMAP
60
30
00
78
FC
C6
FE
C0
C6
FC
78
ENDCHAR
STARTCHAR 00E9
ENCODING 233
SWIDTH 523 0
DWIDTH 8 0
BBX 7 11 1 0
BITMAP
18
10
00
78
FC
C6
FE
C0
C6
FC
78
ENDCHAR
STARTCHAR 00EA
ENCODING 234
SWIDTH 523 0
DWIDTH 8 0
BBX 7 11 1 0
BITMAP
38
6C
00
78
FC
C6
FE
C0
C6
FC
78
ENDCHAR
STARTCHAR 00EB
ENCODING 235
SWIDTH 523 0
DWIDTH 8 0
BBX 7 11 1 0
BITMAP
6C
6C
00
78
FC
C6
FE
C0
C6
FC
78
ENDCHAR
STARTCHAR 00EC
ENCODING 236
SWIDTH 261 0
DWIDTH 4 0
BBX 3 11 0 0
BITMAP
C0
60
00
60
60
60
60
60
60
60
60
ENDCHAR
STARTCHAR 00ED
ENCODING 237
SWIDTH 261 0
DWIDTH 4 0
BBX 3 11 1 0
BITMAP
60
40
00
C0
C0
C0
C0
C0
C0
C0
C0
ENDCHAR
STARTCHAR 00EE
ENCODING 238
SWIDTH 261 0
DWIDTH 4 0
BBX 4 11 0 0
BITMAP
70
D0
00
60
60
60
60
60
60
60
60
ENDCHAR
STARTCHAR 00EF
ENCODING 239
SWIDTH 261 0
DWIDTH 4 0
BBX 4 11 0 0
BITMAP
D0
D0
00
60
60
60
60
60
60
60
60
ENDCHAR
STARTCHAR 00F0
ENCODING 240
SWIDTH 589 0
DWIDTH 9 0
BBX 7 12 1 0
BITMAP
60
76
3C
7C
0E
7E
FE
C6
C6
C6
FE
78
ENDCHAR
STARTCHAR 00F1
ENCODING 241
SWIDTH 589 0
DWIDTH 9 0
BBX 7 11 1 0
BITMAP
70
7C
18
DC
FE
C6
C6
C6
C6
C6
C6
ENDCHAR
STARTCHAR 00F2
ENCODING 242
SWIDTH 589 0
DWIDTH 9 0
BBX 7 11 1 0
BITMAP
60
30
00
78
FE
C6
C6
C6
C6
FE
78
ENDCHAR
STARTCHAR 00F3
ENCODING 243
SWIDTH 589 0
DWIDTH 9 0
BBX 7 11 1 0
BITMAP
1C
18
00
78
FE
C6
C6
C6
C6
FE
78
ENDCHAR
STARTCHAR 00F4
ENCODING 244
SWIDTH 589 0
DWIDTH 9 0
BBX 7 11 1 0
BITMAP
38
6C
00
78
FE
C6
C6
C6
C6
FE
78
ENDCHAR
STARTCHAR 00F5
ENCODING 245
SWIDTH 589 0
DWIDTH 9 0
BBX 7 11 1 0
BITMAP
70
7C
18
78
FE
C6
C6
C6
C6
FE
78
ENDCHAR
STARTCHAR 00F6
ENCODING 246
SWIDTH 589 0
DWIDTH 9 0
BBX 7 11 1 0
BITMAP
6C
6C
00
78
FE
C6
C6
C6
C6
FE
78
ENDCHAR
STARTCHAR 00F7
ENCODING 247
SWIDTH 589 0
DWIDTH 9 0
BBX 7 7 1 1
BITMAP
30
38
00
FE
FE
10
38
ENDCHAR
STARTCHAR 00F8
ENCODING 248
SWIDTH 589 0
DWIDTH 9 0
BBX 7 10 1 -1
BITMAP
02
7E
FE
CE
DE
F6
E6
FE
F8
80
ENDCHAR
STARTCHAR 00F9
ENCODING 249
SWIDTH 589 0
DWIDTH 9 0
BBX 7 11 1 0
BITMAP
70
30
00
C6
C6
C6
C6
C6
C6
FE
76
ENDCHAR
STARTCHAR 00FA
ENCODING 250
SWIDTH 589 0
DWIDTH 9 0
BBX 7 11 1 0
BITMAP
18
10
00
C6
C6
C6
C6
C6
C6
FE
76
ENDCHAR
STARTCHAR 00FB
ENCODING 251
SWIDTH 589 0
DWIDTH 9 0
BBX 7 11 1 0
BITMAP
38
6C
00
C6
C6
C6
C6
C6
C6
FE
76
ENDCHAR
STARTCHAR 00FC
ENCODING 252
SWIDTH 589 0
DWIDTH 9 0
BBX 7 11 1 0
BITMAP
6C
6C
00
C6
C6
C6
C6
C6
C6
FE
76
ENDCHAR
STARTCHAR 00FD
ENCODING 253
SWIDTH 589 0
DWIDTH 9 0
BBX 8 14 0 -3
BITMAP
0C
18
00
E3
63
66
36
3C
1C
1C
18
18
30
30
ENDCHAR
STARTCHAR 00FE
ENCODING 254
SWIDTH 589 0
DWIDTH 9 0
BBX 8 14 1 -3
BITMAP
C0
C0
C0
DC
FE
E7
C3
C3
E7
FE
DC
C0
C0
C0
ENDCHAR
STARTCHAR 00FF
ENCODING 255
SWIDTH 589 0
DWIDTH 9 0
BBX 8 14 0 -3
BITMAP
36
36
00
E3
63
66
36
3C
1C
1C
18
18
30
30
ENDCHAR
STARTCHAR 0131
ENCODING 305
SWIDTH 261 0
DWIDTH 4 0
BBX 2 8 1 0
BITMAP
C0
C0
C0
C0
C0
C0
C0
C0
ENDCHAR
STARTCHAR 0141
ENCODING 321
SWIDTH 589 0
DWIDTH 9 0
BBX 9 11 0 0
BITMAP
3000
3000
3000
3400
3C00
7800
F000
B000
3000
3F80
3F80
ENDCHAR
STARTCHAR 0142
ENCODING 322
SWIDTH 327 0
DWIDTH 5 0
BBX 5 11 0 0
BITMAP
60
60
60
60
78
78
E0
E0
60
60
60
ENDCHAR
STARTCHAR 0152
ENCODING 338
SWIDTH 1112 0
DWIDTH 17 0
BBX 15 11 1 0
BITMAP
1F7E
7FFE
E1E0
C0E0
C0FE
C07E
C0E0
C0E0
61E0
7FFE
1E7E
ENDCHAR
STARTCHAR 0153
ENCODING 339
SWIDTH 916 0
DWIDTH 14 0
BBX 13 8 1 0
BITMAP
79E0
FFF0
C718
C7F8
C600
C710
FFF0
79E0
ENDCHAR
STARTCHAR 0160
ENCODING 352
SWIDTH 589 0
DWIDTH 9 0
BBX 8 14 1 0
BITMAP
6C
38
00
3C
FE
C6
C0
F0
7E
0E
87
C7
FE
7C
ENDCHAR
STARTCHAR 0161
ENCODING 353
SWIDTH 458 0
DWIDTH 7 0
BBX 5 11 1 0
BITMAP
D8
70
00
70
F8
C0
F0
78
88
F8
70
ENDCHAR
STARTCHAR 0178
ENCODING 376
SWIDTH 654 0
DWIDTH 10 0
BBX 10 14 0 0
BITMAP
3300
3300
0000
E1C0
6180
3300
3B00
1E00
1E00
0C00
0C00
0C00
0C00
0C00
ENDCHAR
STARTCHAR 017D
ENCODING 381
SWIDTH 654 0
DWIDTH 10 0
BBX 8 14 1 0
BITMAP
64
38
00
FF
FF
07
0E
1C
38
30
70
E0
FF
FF
ENDCHAR
STARTCHAR 017E
ENCODING 382
SWIDTH 458 0
DWIDTH 7 0
BBX 6 11 1 0
BITMAP
D8
70
00
FC
FC
18
30
60
E0
FC
FC
ENDCHAR
STARTCHAR 0192
ENCODING 402
SWIDTH 523 0
DWIDTH 8 0
BBX 8 15 0 -3
BITMAP
07
0F
0C
18
7E
7E
18
18
30
30
30
30
30
E0
C0
ENDCHAR
STARTCHAR 02C6
ENCODING 710
SWIDTH 392 0
DWIDTH 6 0
BBX 4 3 1 8
BITMAP
60
F0
90
ENDCHAR
STARTCHAR 02C7
ENCODING 711
SWIDTH 392 0
DWIDTH 6 0
BBX 4 3 1 8
BITMAP
90
F0
60
ENDCHAR
STARTCHAR 02C9
ENCODING 713
SWIDTH 327 0
DWIDTH 5 0
BBX 5 1 0 9
BITMAP
F8
ENDCHAR
STARTCHAR 02D8
ENCODING 728
SWIDTH 392 0
DWIDTH 6 0
BBX 5 2 0 9
BITMAP
C8
78
ENDCHAR
STARTCHAR 02D9
ENCODING 729
SWIDTH 196 0
DWIDTH 3 0
BBX 3 3 0 8
BITMAP
40
E0
40
ENDCHAR
STARTCHAR 02DA
ENCODING 730
SWIDTH 261 0
DWIDTH 4 0
BBX 4 4 0 8
BITMAP
60
D0
D0
60
ENDCHAR
STARTCHAR 02DB
ENCODING 731
SWIDTH 196 0
DWIDTH 3 0
BBX 3 3 0 -3
BITMAP
40
C0
60
ENDCHAR
STARTCHAR 02DC
ENCODING 732
SWIDTH 392 0
DWIDTH 6 0
BBX 5 3 0 8
BITMAP
60
F8
18
ENDCHAR
STARTCHAR 02DD
ENCODING 733
SWIDTH 392 0
DWIDTH 6 0
BBX 5 3 0 8
BITMAP
68
58
D0
ENDCHAR
STARTCHAR 0394
ENCODING 916
SWIDTH 720 0
DWIDTH 11 0
BBX 10 11 0 0
BITMAP
0E00
0E00
1E00
1B00
3B00
3300
3180
6180
61C0
7FC0
FFC0
ENDCHAR
STARTCHAR 03A9
ENCODING 937
SWIDTH 785 0
DWIDTH 12 0
BBX 10 11 1 0
BITMAP
1E00
7F80
E1C0
C0C0
C0C0
C0C0
C0C0
E180
7300
F3C0
F3C0
ENDCHAR
STARTCHAR 03BC
ENCODING 956
SWIDTH 589 0
DWIDTH 9 0
BBX 7 11 1 -3
BITMAP
C6
C6
C6
C6
C6
C6
FE
FE
C0
C0
C0
ENDCHAR
STARTCHAR 03C0
ENCODING 960
SWIDTH 654 0
DWIDTH 10 0
BBX 8 8 1 0
BITMAP
FF
FF
66
66
66
66
67
63
ENDCHAR
STARTCHAR 2007
ENCODING 8199
SWIDTH 654 0
DWIDTH 10 0
BBX 0 0 0 0
BITMAP
ENDCHAR
STARTCHAR 2008
ENCODING 8200
SWIDTH 327 0
DWIDTH 5 0
BBX 0 0 0 0
BITMAP
ENDCHAR
STARTCHAR 200B
ENCODING 8203
SWIDTH 0 0
DWIDTH 0 0
BBX 0 0 0 0
BITMAP
ENDCHAR
STARTCHAR 2013
ENCODING 8211
SWIDTH 654 0
DWIDTH 10 0
BBX 8 2 1 4
BITMAP
FF
FF
ENDCHAR
STARTCHAR 2014
ENCODING 8212
SWIDTH 1112 0
DWIDTH 17 0
BBX 14 2 1 4
BITMAP
FFFC
FFFC
ENDCHAR
STARTCHAR 2018
ENCODING 8216
SWIDTH 261 0
DWIDTH 4 0
BBX 2 4 1 7
BITMAP
40
80
C0
C0
ENDCHAR
STARTCHAR 2019
ENCODING 8217
SWIDTH 261 0
DWIDTH 4 0
BBX 2 4 1 7
BITMAP
C0
C0
40
80
ENDCHAR
STARTCHAR 201A
ENCODING 8218
SWIDTH 261 0
DWIDTH 4 0
BBX 2 4 1 -2
BITMAP
C0
C0
40
80
ENDCHAR
STARTCHAR 201C
ENCODING 8220
SWIDTH 458 0
DWIDTH 7 0
BBX 5 4 1 7
BITMAP
48
90
D8
D8
ENDCHAR
STARTCHAR 201D
ENCODING 8221
SWIDTH 458 0
DWIDTH 7 0
BBX 5 4 1 7
BITMAP
D8
D8
48
90
ENDCHAR
STARTCHAR 201E
ENCODING 8222
SWIDTH 458 0
DWIDTH 7 0
BBX 5 4 1 -2
BITMAP
D8
D8
48
90
ENDCHAR
STARTCHAR 2020
ENCODING 8224
SWIDTH 392 0
DWIDTH 6 0
BBX 6 8 0 3
BITMAP
30
30
FC
FC
30
30
30
30
ENDCHAR
STARTCHAR 2021
ENCODING 8225
SWIDTH 458 0
DWIDTH 7 0
BBX 5 11 1 0
BITMAP
20
20
F8
F8
20
20
20
F8
F8
20
20
ENDCHAR
STARTCHAR 2022
ENCODING 8226
SWIDTH 523 0
DWIDTH 8 0
BBX 6 7 1 1
BITMAP
78
FC
FC
FC
FC
FC
78
ENDCHAR
STARTCHAR 2026
ENCODING 8230
SWIDTH 916 0
DWIDTH 14 0
BBX 12 2 1 0
BITMAP
C630
C630
ENDCHAR
STARTCHAR 2030
ENCODING 8240
SWIDTH 1112 0
DWIDTH 17 0
BBX 15 10 1 0
BITMAP
70C0
D980
9B00
DA00
7600
0C00
09FC
1B26
3376
21DC
ENDCHAR
STARTCHAR 2039
ENCODING 8249
SWIDTH 327 0
DWIDTH 5 0
BBX 3 6 1 2
BITMAP
60
C0
C0
C0
C0
60
ENDCHAR
STARTCHAR 203A
ENCODING 8250
SWIDTH 327 0
DWIDTH 5 0
BBX 3 6 1 2
BITMAP
C0
C0
60
60
C0
C0
ENDCHAR
STARTCHAR 2042
ENCODING 8258
SWIDTH 850 0
DWIDTH 13 0
BBX 11 11 1 0
BITMAP
0400
1500
1F00
0E00
0A00
0000
6080
FAA0
FBE0
71C0
5140
ENDCHAR
STARTCHAR 2044
ENCODING 8260
SWIDTH 589 0
DWIDTH 9 0
BBX 8 10 0 0
BITMAP
01
03
06
04
0C
18
30
30
60
C0
ENDCHAR
STARTCHAR 2051
ENCODING 8273
SWIDTH 458 0
DWIDTH 7 0
BBX 5 11 1 0
BITMAP
20
B8
F8
70
50
00
20
B8
F8
70
50
ENDCHAR
STARTCHAR 2070
ENCODING 8304
SWIDTH 458 0
DWIDTH 7 0
BBX 5 6 1 5
BITMAP
70
D8
98
98
D8
70
ENDCHAR
STARTCHAR 2074
ENCODING 8308
SWIDTH 458 0
DWIDTH 7 0
BBX 5 5 1 6
BITMAP
30
70
B0
F8
30
ENDCHAR
STARTCHAR 2075
ENCODING 8309
SWIDTH 392 0
DWIDTH 6 0
BBX 4 6 1 5
BITMAP
70
C0
F0
10
90
F0
ENDCHAR
STARTCHAR 2076
ENCODING 8310
SWIDTH 392 0
DWIDTH 6 0
BBX 5 6 1 5
BITMAP
70
C0
F0
D8
D8
70
ENDCHAR
STARTCHAR 2077
ENCODING 8311
SWIDTH 392 0
DWIDTH 6 0
BBX 4 6 1 5
BITMAP
F0
30
20
60
60
40
ENDCHAR
STARTCHAR 2078
ENCODING 8312
SWIDTH 392 0
DWIDTH 6 0
BBX 5 6 1 5
BITMAP
F0
D0
70
D0
D8
F0
ENDCHAR
STARTCHAR 2079
ENCODING 8313
SWIDTH 392 0
DWIDTH 6 0
BBX 5 6 1 5
BITMAP
70
D0
98
F8
30
E0
ENDCHAR
STARTCHAR 2080
ENCODING 8320
SWIDTH 458 0
DWIDTH 7 0
BBX 5 5 1 -1
BITMAP
F0
D8
98
D8
F0
ENDCHAR
STARTCHAR 2081
ENCODING 8321
SWIDTH 327 0
DWIDTH 5 0
BBX 3 6 1 -2
BITMAP
60
E0
60
60
60
60
ENDCHAR
STARTCHAR 2082
ENCODING 8322
SWIDTH 392 0
DWIDTH 6 0
BBX 4 5 1 -1
BITMAP
F0
90
30
C0
F0
ENDCHAR
STARTCHAR 2083
ENCODING 8323
SWIDTH 392 0
DWIDTH 6 0
BBX 4 6 1 -2
BITMAP
F0
30
70
10
90
70
ENDCHAR
STARTCHAR 2084
ENCODING 8324
SWIDTH 458 0
DWIDTH 7 0
BBX 5 6 1 -2
BITMAP
30
70
B0
F8
30
30
ENDCHAR
STARTCHAR 2085
ENCODING 8325
SWIDTH 392 0
DWIDTH 6 0
BBX 4 6 1 -2
BITMAP
70
C0
F0
10
90
F0
ENDCHAR
STARTCHAR 2086
ENCODING 8326
SWIDTH 392 0
DWIDTH 6 0
BBX 5 6 1 -2
BITMAP
70
C0
F0
98
D8
70
ENDCHAR
STARTCHAR 2087
ENCODING 8327
SWIDTH 392 0
DWIDTH 6 0
BBX 4 6 1 -2
BITMAP
F0
30
20
60
60
40
ENDCHAR
STARTCHAR 2088
ENCODING 8328
SWIDTH 392 0
DWIDTH 6 0
BBX 5 6 1 -2
BITMAP
F0
D0
70
D0
D8
F0
ENDCHAR
STARTCHAR 2089
ENCODING 8329
SWIDTH 392 0
DWIDTH 6 0
BBX 5 6 1 -2
BITMAP
F0
90
D8
70
30
E0
ENDCHAR
STARTCHAR 20AC
ENCODING 8364
SWIDTH 654 0
DWIDTH 10 0
BBX 9 10 1 0
BITMAP
0F00
3F00
3000
FE00
6000
6000
FC00
3000
3F80
0F00
ENDCHAR
STARTCHAR 2113
ENCODING 8467
SWIDTH 458 0
DWIDTH 7 0
BBX 6 10 0 0
BITMAP
38
3C
6C
6C
78
78
E0
E0
3C
3C
ENDCHAR
STARTCHAR 2122
ENCODING 8482
SWIDTH 850 0
DWIDTH 13 0
BBX 11 6 1 5
BITMAP
F660
6660
6760
65E0
65A0
65A0
ENDCHAR
STARTCHAR 2126
ENCODING 8486
SWIDTH 785 0
DWIDTH 12 0
BBX 10 11 1 0
BITMAP
1E00
7F80
E1C0
C0C0
C0C0
C0C0
C0C0
E180
7300
F3C0
F3C0
ENDCHAR
STARTCHAR 2160
ENCODING 8544
SWIDTH 523 0
DWIDTH 8 0
BBX 6 10 1 0
BITMAP
FC
FC
30
30
30
30
30
30
FC
FC
ENDCHAR
STARTCHAR 2161
ENCODING 8545
SWIDTH 785 0
DWIDTH 12 0
BBX 10 10 1 0
BITMAP
FFC0
FFC0
3300
3300
3300
3300
3300
3300
FFC0
FFC0
ENDCHAR
STARTCHAR 2162
ENCODING 8546
SWIDTH 1047 0
DWIDTH 16 0
BBX 14 10 1 0
BITMAP
FFFC
FFFC
3330
3330
3330
3330
3330
3330
FFFC
FFFC
ENDCHAR
STARTCHAR 2163
ENCODING 8547
SWIDTH 1047 0
DWIDTH 16 0
BBX 14 10 1 0
BITMAP
FFFC
FFFC
3630
3330
3330
3370
31E0
31E0
FFFC
FFFC
ENDCHAR
STARTCHAR 2164
ENCODING 8548
SWIDTH 785 0
DWIDTH 12 0
BBX 11 10 1 0
BITMAP
FFE0
FFE0
7180
3300
3300
3B00
1F00
1E00
FFE0
FFE0
ENDCHAR
STARTCHAR 2165
ENCODING 8549
SWIDTH 1047 0
DWIDTH 16 0
BBX 14 10 1 0
BITMAP
FFFC
FFFC
31B0
33B0
3330
3B30
1F30
1E30
FFFC
FFFC
ENDCHAR
STARTCHAR 2166
ENCODING 8550
SWIDTH 1309 0
DWIDTH 20 0
BBX 19 10 1 0
BITMAP
FFFFE0
FFFFE0
31B380
33B380
333380
3B3380
1F3380
1E3380
FFFFE0
FFFFE0
ENDCHAR
STARTCHAR 2167
ENCODING 8551
SWIDTH 1570 0
DWIDTH 24 0
BBX 23 10 1 0
BITMAP
FFFFFE
FFFFFE
31B338
333338
333338
3B3338
1F3338
1E3338
FFFFFE
FFFFFE
ENDCHAR
STARTCHAR 2168
ENCODING 8552
SWIDTH 1047 0
DWIDTH 16 0
BBX 14 10 1 0
BITMAP
FFFC
FFFC
3370
33E0
31C0
31C0
33E0
3370
FFFC
FFFC
ENDCHAR
STARTCHAR 2169
ENCODING 8553
SWIDTH 785 0
DWIDTH 12 0
BBX 10 10 1 0
BITMAP
FFC0
FFC0
3300
3E00
1E00
1E00
1E00
3300
FFC0
FFC0
ENDCHAR
STARTCHAR 216C
ENCODING 8556
SWIDTH 654 0
DWIDTH 10 0
BBX 8 10 1 0
BITMAP
FC
FC
70
70
70
70
73
73
FF
FF
ENDCHAR
STARTCHAR 216D
ENCODING 8557
SWIDTH 720 0
DWIDTH 11 0
BBX 10 10 1 0
BITMAP
3F80
7F80
E180
C180
C000
C000
C1C0
E1C0
7FC0
3FC0
ENDCHAR
STARTCHAR 216E
ENCODING 8558
SWIDTH 720 0
DWIDTH 11 0
BBX 10 10 1 0
BITMAP
FE00
FF00
3180
3180
31C0
31C0
3180
3180
FF00
FE00
ENDCHAR
STARTCHAR 216F
ENCODING 8559
SWIDTH 1047 0
DWIDTH 16 0
BBX 14 10 1 0
BITMAP
F87C
F87C
7878
7CF8
7CF8
7FF8
77B8
77B8
FB7C
FB7C
ENDCHAR
STARTCHAR 2190
ENCODING 8592
SWIDTH 1047 0
DWIDTH 16 0
BBX 15 7 0 1
BITMAP
1000
3000
7FFE
FFFE
7000
3000
1000
ENDCHAR
STARTCHAR 2191
ENCODING 8593
SWIDTH 458 0
DWIDTH 7 0
BBX 6 14 1 -2
BITMAP
20
30
78
FC
30
30
30
30
30
30
30
30
30
30
ENDCHAR
STARTCHAR 2192
ENCODING 8594
SWIDTH 1112 0
DWIDTH 17 0
BBX 16 7 0 1
BITMAP
0010
000C
FFFE
FFFF
000C
0008
0010
ENDCHAR
STARTCHAR 2193
ENCODING 8595
SWIDTH 458 0
DWIDTH 7 0
BBX 7 14 0 -2
BITMAP
10
10
10
10
10
10
10
10
10
10
FE
7C
38
10
ENDCHAR
STARTCHAR 2196
ENCODING 8598
SWIDTH 850 0
DWIDTH 13 0
BBX 11 11 1 0
BITMAP
F800
F000
F000
F800
9C00
0E00
0700
0380
01C0
00E0
0040
ENDCHAR
STARTCHAR 2197
ENCODING 8599
SWIDTH 785 0
DWIDTH 12 0
BBX 11 11 -1 0
BITMAP
01E0
00E0
01E0
03A0
0720
0E00
1C00
3800
7000
E000
4000
ENDCHAR
STARTCHAR 2198
ENCODING 8600
SWIDTH 850 0
DWIDTH 13 0
BBX 11 11 1 0
BITMAP
8000
C000
6000
3000
1800
0C00
0620
0360
01E0
01E0
03E0
ENDCHAR
STARTCHAR 2199
ENCODING 8601
SWIDTH 720 0
DWIDTH 11 0
BBX 10 11 1 0
BITMAP
0040
00C0
0180
0300
0600
0C00
9800
B000
E000
E000
F000
ENDCHAR
STARTCHAR 21A9
ENCODING 8617
SWIDTH 850 0
DWIDTH 13 0
BBX 13 9 0 1
BITMAP
03E0
03F0
1018
3018
7018
FFF0
FFE0
3000
1000
ENDCHAR
STARTCHAR 21B0
ENCODING 8624
SWIDTH 785 0
DWIDTH 12 0
BBX 10 11 1 0
BITMAP
1000
3000
FFC0
FFC0
70C0
30C0
10C0
00C0
00C0
00C0
00C0
ENDCHAR
STARTCHAR 21B1
ENCODING 8625
SWIDTH 720 0
DWIDTH 11 0
BBX 10 11 1 0
BITMAP
0200
0300
FF80
FFC0
8380
8300
8000
8000
8000
8000
8000
ENDCHAR
STARTCHAR 21B2
ENCODING 8626
SWIDTH 785 0
DWIDTH 12 0
BBX 11 11 0 0
BITMAP
0060
0060
0060
0060
0060
3060
7060
FFE0
7FE0
3000
1000
ENDCHAR
STARTCHAR 21B3
ENCODING 8627
SWIDTH 850 0
DWIDTH 13 0
BBX 10 11 1 0
BITMAP
C000
C000
C000
C000
C000
C100
C180
FFC0
FFC0
0180
0100
ENDCHAR
STARTCHAR 21B4
ENCODING 8628
SWIDTH 785 0
DWIDTH 12 0
BBX 11 11 1 0
BITMAP
FF80
FF80
0180
0180
0180
0180
0180
07E0
03C0
0380
0100
ENDCHAR
STARTCHAR 21C6
ENCODING 8646
SWIDTH 1178 0
DWIDTH 18 0
BBX 16 13 1 -1
BITMAP
1000
3000
7000
FFFF
7FFF
3000
1000
0008
000C
FFFF
FFFE
000C
0008
ENDCHAR
STARTCHAR 2202
ENCODING 8706
SWIDTH 589 0
DWIDTH 9 0
BBX 8 11 1 0
BITMAP
F8
FE
06
07
7B
FF
C3
C3
C6
FE
7C
ENDCHAR
STARTCHAR 2206
ENCODING 8710
SWIDTH 720 0
DWIDTH 11 0
BBX 10 11 0 0
BITMAP
0E00
0E00
1E00
1B00
3B00
3300
3180
6180
61C0
7FC0
FFC0
ENDCHAR
STARTCHAR 220F
ENCODING 8719
SWIDTH 654 0
DWIDTH 10 0
BBX 8 11 1 0
BITMAP
FF
FF
C3
C3
C3
C3
C3
C3
C3
C3
C3
ENDCHAR
STARTCHAR 2211
ENCODING 8721
SWIDTH 589 0
DWIDTH 9 0
BBX 7 11 1 0
BITMAP
FE
FE
E0
70
38
1C
38
70
E0
FE
FE
ENDCHAR
STARTCHAR 2212
ENCODING 8722
SWIDTH 589 0
DWIDTH 9 0
BBX 7 2 1 4
BITMAP
FE
FE
ENDCHAR
STARTCHAR 2215
ENCODING 8725
SWIDTH 458 0
DWIDTH 7 0
BBX 7 10 0 0
BITMAP
06
0C
0C
18
18
30
30
60
60
C0
ENDCHAR
STARTCHAR 2219
ENCODING 8729
SWIDTH 261 0
DWIDTH 4 0
BBX 3 3 1 3
BITMAP
C0
E0
C0
ENDCHAR
STARTCHAR 221A
ENCODING 8730
SWIDTH 720 0
DWIDTH 11 0
BBX 10 14 1 0
BITMAP
01C0
03C0
0300
0300
0600
0600
C600
CC00
CC00
6C00
6800
3800
3800
3000
ENDCHAR
STARTCHAR 221E
ENCODING 8734
SWIDTH 850 0
DWIDTH 13 0
BBX 11 6 1 1
BITMAP
71C0
FFE0
CE60
CE60
FBE0
7180
ENDCHAR
STARTCHAR 222B
ENCODING 8747
SWIDTH 327 0
DWIDTH 5 0
BBX 5 14 0 -3
BITMAP
18
38
30
30
30
30
30
30
30
30
30
30
E0
E0
ENDCHAR
STARTCHAR 2248
ENCODING 8776
SWIDTH 589 0
DWIDTH 9 0
BBX 8 7 0 1
BITMAP
30
79
4F
06
79
FF
06
ENDCHAR
STARTCHAR 2260
ENCODING 8800
SWIDTH 589 0
DWIDTH 9 0
BBX 7 7 1 1
BITMAP
06
FE
FE
18
FE
FE
60
ENDCHAR
STARTCHAR 2264
ENCODING 8804
SWIDTH 523 0
DWIDTH 8 0
BBX 6 8 1 1
BITMAP
04
3C
F0
F0
3C
04
FC
FC
ENDCHAR
STARTCHAR 2265
ENCODING 8805
SWIDTH 523 0
DWIDTH 8 0
BBX 6 8 1 1
BITMAP
80
F8
3C
3C
F0
80
FC
FC
ENDCHAR
STARTCHAR 22C5
ENCODING 8901
SWIDTH 261 0
DWIDTH 4 0
BBX 3 3 1 3
BITMAP
C0
E0
C0
ENDCHAR
STARTCHAR 24C5
ENCODING 9413
SWIDTH 785 0
DWIDTH 12 0
BBX 11 11 1 0
BITMAP
1E00
7180
40C0
9E40
9B60
9E20
9860
9840
40C0
7180
1F00
ENDCHAR
STARTCHAR 25A0
ENCODING 9632
SWIDTH 916 0
DWIDTH 14 0
BBX 10 11 2 0
BITMAP
FFC0
FFC0
FFC0
FFC0
FFC0
FFC0
FFC0
FFC0
FFC0
FFC0
FFC0
ENDCHAR
STARTCHAR 25A1
ENCODING 9633
SWIDTH 916 0
DWIDTH 14 0
BBX 10 11 2 0
BITMAP
FFC0
FFC0
8040
8040
8040
8040
8040
8040
8040
FFC0
FFC0
ENDCHAR
STARTCHAR 25B2
ENCODING 9650
SWIDTH 850 0
DWIDTH 13 0
BBX 13 11 0 0
BITMAP
0200
0200
0700
0F00
0F80
1FC0
1FC0
3FE0
7FE0
7FF0
FFF8
ENDCHAR
STARTCHAR 25B3
ENCODING 9651
SWIDTH 850 0
DWIDTH 13 0
BBX 13 11 0 0
BITMAP
0200
0200
0700
0F00
0D80
18C0
18C0
3060
6060
7FF0
FFF8
ENDCHAR
STARTCHAR 25CA
ENCODING 9674
SWIDTH 589 0
DWIDTH 9 0
BBX 9 11 0 0
BITMAP
1C00
1E00
3600
3300
6300
E180
6300
3300
3600
1E00
1C00
ENDCHAR
STARTCHAR 25CB
ENCODING 9675
SWIDTH 785 0
DWIDTH 12 0
BBX 11 11 1 0
BITMAP
1F00
7F80
E0C0
C0C0
8060
8060
8060
C040
E0C0
7F80
1F00
ENDCHAR
STARTCHAR 25CF
ENCODING 9679
SWIDTH 785 0
DWIDTH 12 0
BBX 11 11 1 0
BITMAP
1F00
7F80
FFC0
FFC0
FFE0
FFE0
FFE0
FFC0
FFC0
7F80
1F00
ENDCHAR
STARTCHAR 262E
ENCODING 9774
SWIDTH 785 0
DWIDTH 12 0
BBX 11 11 1 0
BITMAP
1F00
7F80
6CC0
CC40
8C60
9E60
BF60
EDC0
ECC0
7F80
1F00
ENDCHAR
STARTCHAR 2713
ENCODING 10003
SWIDTH 916 0
DWIDTH 14 0
BBX 13 11 1 0
BITMAP
0010
0038
0030
0060
00C0
8180
C300
E600
7C00
3800
1000
ENDCHAR
STARTCHAR 2715
ENCODING 10005
SWIDTH 785 0
DWIDTH 12 0
BBX 10 11 1 0
BITMAP
8080
C1C0
6380
3700
1E00
0C00
1E00
3300
6180
C0C0
8040
ENDCHAR
STARTCHAR 2780
ENCODING 10112
SWIDTH 850 0
DWIDTH 13 0
BBX 11 11 1 0
BITMAP
1F00
7180
40C0
8460
9C60
8420
8460
8460
40C0
7180
1F00
ENDCHAR
STARTCHAR 2781
ENCODING 10113
SWIDTH 850 0
DWIDTH 13 0
BBX 11 11 1 0
BITMAP
1F00
3180
40C0
9E40
9260
8620
9860
9E60
40C0
7180
1F00
ENDCHAR
STARTCHAR 2782
ENCODING 10114
SWIDTH 850 0
DWIDTH 13 0
BBX 11 11 1 0
BITMAP
1F00
7180
40C0
9E60
8660
8620
9360
9E40
40C0
7180
1F00
ENDCHAR
STARTCHAR 2783
ENCODING 10115
SWIDTH 850 0
DWIDTH 13 0
BBX 11 11 1 0
BITMAP
1F00
7180
40C0
8E60
9E60
9620
9F60
8640
40C0
7180
1F00
ENDCHAR
STARTCHAR 2784
ENCODING 10116
SWIDTH 850 0
DWIDTH 13 0
BBX 11 11 1 0
BITMAP
1F00
7180
40C0
8E60
9860
9E20
9260
9E40
40C0
7180
1F00
ENDCHAR
STARTCHAR 2785
ENCODING 10117
SWIDTH 850 0
DWIDTH 13 0
BBX 11 11 1 0
BITMAP
1F00
7180
40C0
8E40
9860
9E20
9260
9E60
40C0
7180
1F00
ENDCHAR
STARTCHAR 2786
ENCODING 10118
SWIDTH 850 0
DWIDTH 13 0
BBX 11 11 1 0
BITMAP
1F00
7180
40C0
9F40
8260
8420
8C60
8C60
40C0
7180
1F00
ENDCHAR
STARTCHAR 2787
ENCODING 10119
SWIDTH 850 0
DWIDTH 13 0
BBX 11 11 1 0
BITMAP
1F00
7180
40C0
9E40
9A60
8E20
9360
9E60
40C0
7180
1F00
ENDCHAR
STARTCHAR 2788
ENCODING 10120
SWIDTH 850 0
DWIDTH 13 0
BBX 11 11 1 0
BITMAP
1F00
7180
40C0
9E40
9360
9F20
8360
9E60
40C0
7180
1F00
ENDCHAR
STARTCHAR E000
ENCODING 57344
SWIDTH 720 0
DWIDTH 11 0
BBX 11 11 0 0
BITMAP
1FE0
1FE0
1000
1000
1000
1000
1000
FC00
7C00
3800
1000
ENDCHAR
STARTCHAR E001
ENCODING 57345
SWIDTH 1112 0
DWIDTH 17 0
BBX 15 11 1 0
BITMAP
07C0
0FC0
1808
301C
303E
307E
FC18
7018
2030
07E0
07C0
ENDCHAR
STARTCHAR E002
ENCODING 57346
SWIDTH 981 0
DWIDTH 15 0
BBX 13 11 1 0
BITMAP
1F00
7E00
6060
C060
C0F0
81F8
C060
C060
60C0
7F80
1F00
ENDCHAR
STARTCHAR FB00
ENCODING 64256
SWIDTH 654 0
DWIDTH 10 0
BBX 10 12 0 0
BITMAP
18C0
39C0
7380
7300
FFC0
FFC0
7300
7300
7300
7300
7300
7300
ENDCHAR
STARTCHAR FB01
ENCODING 64257
SWIDTH 654 0
DWIDTH 10 0
BBX 9 12 0 0
BITMAP
1900
3B80
7100
7000
FF80
FF80
7180
7180
7180
7180
7180
7180
ENDCHAR
STARTCHAR FB02
ENCODING 64258
SWIDTH 654 0
DWIDTH 10 0
BBX 9 11 0 0
BITMAP
3B80
3B80
7380
FF80
FF80
7380
7380
7380
7380
7380
7380
ENDCHAR
STARTCHAR FB03
ENCODING 64259
SWIDTH 981 0
DWIDTH 15 0
BBX 14 12 0 0
BITMAP
18C8
39DC
7388
7300
FFFC
FFFC
731C
731C
731C
731C
731C
731C
ENDCHAR
STARTCHAR FB04
ENCODING 64260
SWIDTH 981 0
DWIDTH 15 0
BBX 14 11 0 0
BITMAP
39DC
39DC
731C
FFFC
FFFC
731C
731C
731C
731C
731C
731C
ENDCHAR
STARTCHAR FEFF
ENCODING 65279
SWIDTH 0 0
DWIDTH 0 0
BBX 0 0 0 0
BITMAP
ENDCHAR
ENDFONT
